<svg id="visual" viewBox="0 0 2000 450" width="2000" height="450" xmlns="http://www.w3.org/2000/svg" xmlns:xlink="http://www.w3.org/1999/xlink" version="1.1"><path d="M0 277L47.7 275.8C95.3 274.7 190.7 272.3 285.8 277C381 281.7 476 293.3 571.2 296.7C666.3 300 761.7 295 857 296.7C952.3 298.3 1047.7 306.7 1143 313.7C1238.3 320.7 1333.7 326.3 1428.8 318.8C1524 311.3 1619 290.7 1714.2 285.7C1809.3 280.7 1904.7 291.3 1952.3 296.7L2000 302L2000 451L1952.3 451C1904.7 451 1809.3 451 1714.2 451C1619 451 1524 451 1428.8 451C1333.7 451 1238.3 451 1143 451C1047.7 451 952.3 451 857 451C761.7 451 666.3 451 571.2 451C476 451 381 451 285.8 451C190.7 451 95.3 451 47.7 451L0 451Z" fill="#fa7268"></path><path d="M0 329L47.7 325.2C95.3 321.3 190.7 313.7 285.8 317C381 320.3 476 334.7 571.2 342.7C666.3 350.7 761.7 352.3 857 344.5C952.3 336.7 1047.7 319.3 1143 317C1238.3 314.7 1333.7 327.3 1428.8 334.8C1524 342.3 1619 344.7 1714.2 347C1809.3 349.3 1904.7 351.7 1952.3 352.8L2000 354L2000 451L1952.3 451C1904.7 451 1809.3 451 1714.2 451C1619 451 1524 451 1428.8 451C1333.7 451 1238.3 451 1143 451C1047.7 451 952.3 451 857 451C761.7 451 666.3 451 571.2 451C476 451 381 451 285.8 451C190.7 451 95.3 451 47.7 451L0 451Z" fill="#ef5f67"></path><path d="M0 358L47.7 359.7C95.3 361.3 190.7 364.7 285.8 361.5C381 358.3 476 348.7 571.2 347.7C666.3 346.7 761.7 354.3 857 352.5C952.3 350.7 1047.7 339.3 1143 335.3C1238.3 331.3 1333.7 334.7 1428.8 334.5C1524 334.3 1619 330.7 1714.2 330.3C1809.3 330 1904.7 333 1952.3 334.5L2000 336L2000 451L1952.3 451C1904.7 451 1809.3 451 1714.2 451C1619 451 1524 451 1428.8 451C1333.7 451 1238.3 451 1143 451C1047.7 451 952.3 451 857 451C761.7 451 666.3 451 571.2 451C476 451 381 451 285.8 451C190.7 451 95.3 451 47.7 451L0 451Z" fill="#e34c67"></path><path d="M0 396L47.7 393.2C95.3 390.3 190.7 384.7 285.8 381.2C381 377.7 476 376.3 571.2 377.3C666.3 378.3 761.7 381.7 857 385C952.3 388.3 1047.7 391.7 1143 393.3C1238.3 395 1333.7 395 1428.8 392.5C1524 390 1619 385 1714.2 385.5C1809.3 386 1904.7 392 1952.3 395L2000 398L2000 451L1952.3 451C1904.7 451 1809.3 451 1714.2 451C1619 451 1524 451 1428.8 451C1333.7 451 1238.3 451 1143 451C1047.7 451 952.3 451 857 451C761.7 451 666.3 451 571.2 451C476 451 381 451 285.8 451C190.7 451 95.3 451 47.7 451L0 451Z" fill="#d53867"></path><path d="M0 399L47.7 399.5C95.3 400 190.7 401 285.8 403.7C381 406.3 476 410.7 571.2 410.5C666.3 410.3 761.7 405.7 857 405C952.3 404.3 1047.7 407.7 1143 407.2C1238.3 406.7 1333.7 402.3 1428.8 402.5C1524 402.7 1619 407.3 1714.2 410.7C1809.3 414 1904.7 416 1952.3 417L2000 418L2000 451L1952.3 451C1904.7 451 1809.3 451 1714.2 451C1619 451 1524 451 1428.8 451C1333.7 451 1238.3 451 1143 451C1047.7 451 952.3 451 857 451C761.7 451 666.3 451 571.2 451C476 451 381 451 285.8 451C190.7 451 95.3 451 47.7 451L0 451Z" fill="#c62368"></path></svg>